<svg class="icon" width="40" height="40" viewBox="0 0 40 40" fill="none" xmlns="http://www.w3.org/2000/svg">
    <path fill-rule="evenodd" clip-rule="evenodd" d="M32.4008 7.58596C30.7829 5.96726 28.8608 4.68456 26.7451 3.8117C24.6295 2.93884 22.3621 2.49306 20.0734 2.50002C10.4688 2.50002 2.65 10.2797 2.64609 19.8438C2.64184 22.8892 3.44461 25.8813 4.97266 28.5156L2.5 37.5L11.7383 35.0883C14.2955 36.4736 17.1581 37.1987 20.0664 37.1977H20.0734C29.6773 37.1977 37.4953 29.4172 37.5 19.8539C37.5058 17.5731 37.058 15.3139 36.1826 13.2078C35.3071 11.1017 34.0216 9.19065 32.4008 7.58596ZM20.0734 34.2703H20.0672C17.4745 34.2711 14.929 33.5773 12.6953 32.261L12.1664 31.9485L6.68437 33.3797L8.14766 28.0602L7.80312 27.5133C6.35343 25.2181 5.58535 22.5584 5.58828 19.8438C5.58828 11.8961 12.0891 5.42971 20.0789 5.42971C23.9117 5.42286 27.5903 6.93872 30.3055 9.64386C33.0208 12.349 34.5504 16.0219 34.5578 19.8547C34.5547 27.8031 28.057 34.2703 20.0734 34.2703ZM28.018 23.4742C27.5828 23.2571 25.4398 22.2086 25.043 22.0641C24.6461 21.9196 24.3531 21.8469 24.0633 22.2813C23.7734 22.7156 22.9383 23.6875 22.6844 23.9805C22.4305 24.2735 22.1766 24.3055 21.7414 24.0883C21.3063 23.8711 19.9023 23.4141 18.2391 21.9375C16.9445 20.7883 16.0711 19.3696 15.8172 18.936C15.5633 18.5024 15.7898 18.2672 16.0078 18.0516C16.2039 17.857 16.443 17.5453 16.6609 17.2922C16.8789 17.0391 16.9516 16.8578 17.0961 16.5688C17.2406 16.2797 17.1687 16.0266 17.0602 15.8102C16.9516 15.5938 16.0805 13.4602 15.718 12.5922C15.3641 11.7469 15.0055 11.8617 14.7383 11.8485C14.4844 11.836 14.1914 11.8328 13.9031 11.8328C13.6827 11.8386 13.4659 11.8897 13.2662 11.983C13.0664 12.0762 12.888 12.2097 12.7422 12.375C12.343 12.8094 11.218 13.8594 11.218 15.9906C11.218 18.1219 12.7805 20.1844 12.9961 20.4735C13.2117 20.7625 16.0664 25.1399 20.4344 27.0172C21.2455 27.3646 22.0742 27.6691 22.9172 27.9297C23.9602 28.2594 24.9094 28.2133 25.6594 28.1016C26.4961 27.9774 28.2375 27.0531 28.5992 26.0406C28.9609 25.0281 28.9617 24.161 28.8531 23.9805C28.7445 23.8 28.4539 23.6906 28.018 23.4742Z" fill="#424141"/>
</svg>
