<svg width="28" height="32" viewBox="0 0 28 32" fill="none" xmlns="http://www.w3.org/2000/svg">
<g clip-path="url(#clip0_424_490)">
<path d="M-0.00488281 31.9999V0.0112239H5.48115V5.48196H9.17069V-0.0032959H11.8831C11.8831 1.77134 11.9797 3.51049 11.8268 5.23512C11.801 5.52713 11.5885 5.80139 11.331 6.07888L11.1893 6.22731C11.1249 6.29506 11.0605 6.35798 10.9962 6.42574C10.9318 6.4935 10.869 6.55803 10.8078 6.62418C10.7466 6.69033 10.6887 6.7597 10.6323 6.83068C10.6323 6.83068 10.6227 6.89522 10.6484 6.91296C11.8622 7.71962 11.925 8.89088 11.9153 10.2122C11.867 17.1494 11.8928 24.0866 11.8928 31.0239V32.0032H9.20933V8.2875H5.51817V31.9999" fill="black"/>
<path d="M25.3407 27.3972V2.7394H21.7011V29.2751H27.9952V31.9871H18.9597V0H27.9952L28 27.3972H25.3407Z" fill="black"/>
<path d="M16.7173 0H14.0982V31.9871H16.7173V0Z" fill="black"/>
</g>
<defs>
<clipPath id="clip0_424_490">
<rect width="28" height="32" fill="white"/>
</clipPath>
</defs>
</svg>
