<svg width="70" height="81" viewBox="0 0 70 81" fill="none" xmlns="http://www.w3.org/2000/svg">
<g clip-path="url(#clip0_421_375)">
<path d="M-0.0122681 80.9928V1.02107H13.7028V14.6979H22.9267V0.984766H29.7078C29.7078 5.42137 29.9492 9.76924 29.5669 14.0808C29.5025 14.8108 28.9713 15.4965 28.3274 16.1902L27.9732 16.5613C27.8123 16.7307 27.6513 16.888 27.4903 17.0574C27.3293 17.2268 27.1724 17.3881 27.0195 17.5535C26.8665 17.7188 26.7217 17.8923 26.5808 18.0697C26.5808 18.0697 26.5567 18.231 26.6211 18.2754C29.6554 20.292 29.8124 23.2202 29.7882 26.5235C29.6675 43.8665 29.7319 61.2096 29.7319 78.5527V81.0009H23.0233V21.7118H13.7954V80.9928" fill="white"/>
<path d="M63.3517 69.486V7.84144H54.2526V74.1807H69.9879V80.9607H47.3991V0.992943H69.9879L70 69.486H63.3517Z" fill="white"/>
<path d="M41.7931 0.992943H35.2455V80.9607H41.7931V0.992943Z" fill="white"/>
</g>
<defs>
<clipPath id="clip0_421_375">
<rect width="70" height="80" fill="white" transform="translate(0 0.992943)"/>
</clipPath>
</defs>
</svg>
