<svg width="270" height="270" viewBox="0 0 270 270" fill="none" xmlns="http://www.w3.org/2000/svg">
<path d="M230.625 45H39.375C30.0552 45 22.5 52.5552 22.5 61.875V208.125C22.5 217.445 30.0552 225 39.375 225H230.625C239.945 225 247.5 217.445 247.5 208.125V61.875C247.5 52.5552 239.945 45 230.625 45Z" stroke="white" stroke-opacity="0.4" stroke-width="4" stroke-linejoin="round"/>
<path d="M245.5 112.5H24.5" stroke="white" stroke-opacity="0.4" stroke-width="4"/>
<path d="M45 78.75C45 72.5368 50.0368 67.5 56.25 67.5C62.4632 67.5 67.5 72.5368 67.5 78.75C67.5 84.9632 62.4632 90 56.25 90C50.0368 90 45 84.9632 45 78.75Z" fill="white" fill-opacity="0.4"/>
<path d="M78.75 78.75C78.75 72.5368 83.7868 67.5 90 67.5C96.2132 67.5 101.25 72.5368 101.25 78.75C101.25 84.9632 96.2132 90 90 90C83.7868 90 78.75 84.9632 78.75 78.75Z" fill="white" fill-opacity="0.4"/>
</svg>
